<?xml version="1.0" encoding="UTF-8" standalone="no"?>
<!-- Created with Inkscape (http://www.inkscape.org/) -->

<svg
   version="1.1"
   id="svg1099"
   width="2560"
   height="474.23999"
   viewBox="0 0 2560 474.23999"
   sodipodi:docname="Datoma Logotype.ai"
   xmlns:inkscape="http://www.inkscape.org/namespaces/inkscape"
   xmlns:sodipodi="http://sodipodi.sourceforge.net/DTD/sodipodi-0.dtd"
   xmlns="http://www.w3.org/2000/svg"
   xmlns:svg="http://www.w3.org/2000/svg">
  <defs
     id="defs1103">
    <clipPath
       clipPathUnits="userSpaceOnUse"
       id="clipPath1463">
      <path
         d="M 0,355.68 H 1920 V 0 H 0 Z"
         id="path1461" />
    </clipPath>
  </defs>
  <sodipodi:namedview
     id="namedview1101"
     pagecolor="#505050"
     bordercolor="#eeeeee"
     borderopacity="1"
     inkscape:showpageshadow="0"
     inkscape:pageopacity="0"
     inkscape:pagecheckerboard="0"
     inkscape:deskcolor="#505050"
     showgrid="false" />
  <g
     id="g1455"
     inkscape:groupmode="layer"
     inkscape:label="Page 6"
     transform="matrix(1.3333333,0,0,-1.3333333,0,474.24)">
    <g
       id="g1457">
      <g
         id="g1459"
         clip-path="url(#clipPath1463)">
        <g
           id="g1465"
           transform="translate(491.014,298.7937)">
          <path
             d="m 0,0 v -235.799 h 58.278 c 71.277,0 119.692,47.518 119.692,118.348 C 177.97,-47.071 129.555,0 58.278,0 Z m 221.902,-117.451 c 0,-93.691 -67.242,-158.244 -163.624,-158.244 H -43.93 V 39.896 H 58.278 c 96.382,0 163.624,-64.104 163.624,-157.347"
             style="fill:#b7ffdd;fill-opacity:1;fill-rule:nonzero;stroke:none"
             id="path1467" />
        </g>
        <g
           id="g1469"
           transform="translate(881.9039,107.3764)">
          <path
             d="m 0,0 v 3.136 c -12.104,13.45 -34.068,21.967 -56.932,21.967 -28.69,0 -49.31,-17.482 -49.31,-41.241 0,-23.312 20.172,-40.794 49.31,-40.794 C -25.551,-56.932 -0.449,-30.931 0,0 M 42.14,53.793 V -84.278 H 0 v 26.449 c -14.794,-18.828 -37.655,-31.829 -66.794,-31.829 -47.518,0 -80.242,30.931 -80.242,73.072 0,42.137 34.517,72.62 81.588,72.62 26,0 48.862,-7.172 65.448,-19.723 L 0,52 c 0,35.863 -25.103,56.037 -66.345,56.037 -25.103,0 -51.106,-12.104 -70.382,-33.175 v 40.794 c 20.174,19.276 49.761,29.587 77.554,29.587 60.968,0 101.313,-36.311 101.313,-91.45"
             style="fill:#b7ffdd;fill-opacity:1;fill-rule:nonzero;stroke:none"
             id="path1471" />
        </g>
        <g
           id="g1473"
           transform="translate(1014.5872,212.2745)">
          <path
             d="m 0,0 v -102.657 c 0,-36.311 19.276,-54.69 44.828,-54.69 14.794,0 26.449,3.585 39.896,11.206 v -37.206 c -17.032,-8.07 -32.275,-11.209 -46.171,-11.209 -47.072,0 -81.139,30.485 -81.139,89.658 V 0 h -39.002 v 34.965 h 39.002 v 65.899 H 0 V 34.965 H 84.724 V 0 Z"
             style="fill:#b7ffdd;fill-opacity:1;fill-rule:nonzero;stroke:none"
             id="path1475" />
        </g>
        <g
           id="g1477"
           transform="translate(1301.4814,135.1691)">
          <path
             d="m 0,0 c 0,45.277 -33.173,78.898 -76.657,78.898 -43.484,0 -77.103,-33.621 -77.103,-78.898 0,-45.277 33.619,-78.898 77.103,-78.898 C -33.173,-78.898 0,-45.277 0,0 m -196.349,0 c 0,66.345 52.449,117.451 119.692,117.451 67.243,0 119.692,-51.106 119.692,-117.451 0,-66.345 -52.449,-117.451 -119.692,-117.451 -67.243,0 -119.692,51.106 -119.692,117.451"
             style="fill:#b7ffdd;fill-opacity:1;fill-rule:nonzero;stroke:none"
             id="path1479" />
        </g>
        <g
           id="g1481"
           transform="translate(1703.5802,154.8942)">
          <path
             d="M 0,0 V -131.796 H -42.138 V -3.139 c 0,39.45 -19.276,62.312 -49.759,62.312 -34.07,0 -56.036,-26.449 -56.036,-71.277 v -119.692 h -42.138 V -3.139 c 0,39.45 -19.277,62.312 -49.759,62.312 -33.622,0 -56.037,-26.449 -56.037,-71.277 v -119.692 h -42.138 V 92.346 h 42.138 V 46.62 c 10.758,32.278 38.553,51.106 68.587,51.106 35.414,0 60.07,-17.036 71.725,-48.864 14.794,31.38 41.243,48.864 75.762,48.864 C -30.483,97.726 0,62.312 0,0"
             style="fill:#b7ffdd;fill-opacity:1;fill-rule:nonzero;stroke:none"
             id="path1483" />
        </g>
        <g
           id="g1485"
           transform="translate(1877.5062,107.3764)">
          <path
             d="m 0,0 v 3.136 c -12.104,13.45 -34.07,21.967 -56.932,21.967 -28.69,0 -49.312,-17.482 -49.312,-41.241 0,-23.312 20.174,-40.794 49.312,-40.794 C -25.554,-56.932 -0.449,-30.931 0,0 M 42.138,53.793 V -84.278 H 0 v 26.449 c -14.794,-18.828 -37.655,-31.829 -66.794,-31.829 -47.518,0 -80.244,30.931 -80.244,73.072 0,42.137 34.519,72.62 81.588,72.62 26,0 48.864,-7.172 65.45,-19.723 L 0,52 c 0,35.863 -25.105,56.037 -66.345,56.037 -25.105,0 -51.106,-12.104 -70.382,-33.175 v 40.794 c 20.174,19.276 49.759,29.587 77.554,29.587 60.965,0 101.311,-36.311 101.311,-91.45"
             style="fill:#b7ffdd;fill-opacity:1;fill-rule:nonzero;stroke:none"
             id="path1487" />
        </g>
        <g
           id="g1489"
           transform="translate(141.7535,319.4998)">
          <path
             d="M 0,0 V -35.495 H 71.017 V 0 C 70.989,19.611 55.109,35.495 35.47,35.495 15.882,35.495 0,19.611 0,0"
             style="fill:#b7ffdd;fill-opacity:1;fill-rule:nonzero;stroke:none"
             id="path1491" />
        </g>
        <g
           id="g1493"
           transform="translate(212.7701,36.232)">
          <path
             d="M 0,0 V 35.495 H -71.017 V 0 c 0,-19.614 15.91,-35.547 35.521,-35.547 C -15.881,-35.547 0,-19.614 0,0"
             style="fill:#b7ffdd;fill-opacity:1;fill-rule:nonzero;stroke:none"
             id="path1495" />
        </g>
        <g
           id="g1497"
           transform="translate(35.9027,142.3181)">
          <path
             d="M 0,0 H 35.496 V 71.044 H 0 C -19.639,70.989 -35.547,55.106 -35.547,35.495 -35.519,15.883 -19.611,0 0,0"
             style="fill:#b7ffdd;fill-opacity:1;fill-rule:nonzero;stroke:none"
             id="path1499" />
        </g>
        <g
           id="g1501"
           transform="translate(319.8253,213.3619)">
          <path
             d="M 0,0 H -35.495 V -71.044 H 0 c 19.614,0.052 35.523,15.938 35.523,35.549 C 35.523,-15.883 19.587,0 0,0"
             style="fill:#b7ffdd;fill-opacity:1;fill-rule:nonzero;stroke:none"
             id="path1503" />
        </g>
        <g
           id="g1505"
           transform="translate(234.2699,303.7047)">
          <path
             d="m 0,0 -34.403,-34.425 68.852,-68.862 34.38,34.426 c 19.028,19.024 19.054,49.883 0.032,68.91 C 49.834,19.025 19.03,18.973 0,0"
             style="fill:#b7ffdd;fill-opacity:1;fill-rule:nonzero;stroke:none"
             id="path1507" />
        </g>
        <g
           id="g1509"
           transform="translate(51.3971,234.8481)">
          <path
             d="m 0,0 34.425,-34.403 68.862,68.852 -34.426,34.38 C 49.837,87.857 18.978,87.883 -0.049,68.861 -19.025,49.834 -18.973,19.03 0,0"
             style="fill:#b7ffdd;fill-opacity:1;fill-rule:nonzero;stroke:none"
             id="path1511" />
        </g>
        <g
           id="g1513"
           transform="translate(120.2537,51.9753)">
          <path
             d="m 0,0 34.403,34.425 -68.852,68.862 -34.38,-34.426 C -87.857,49.837 -87.883,18.978 -68.861,-0.049 -49.834,-19.025 -19.03,-18.973 0,0"
             style="fill:#b7ffdd;fill-opacity:1;fill-rule:nonzero;stroke:none"
             id="path1515" />
        </g>
        <g
           id="g1517"
           transform="translate(303.1266,120.8319)">
          <path
             d="m 0,0 -34.425,34.403 -68.862,-68.852 34.426,-34.38 c 19.024,-19.028 49.883,-19.054 68.91,-0.032 C 19.025,-49.834 18.973,-19.03 0,0"
             style="fill:#b7ffdd;fill-opacity:1;fill-rule:nonzero;stroke:none"
             id="path1519" />
        </g>
        <g
           id="g1521"
           transform="translate(222.2168,177.8673)">
          <path
             d="M 0,0 -44.953,-44.983 -89.91,0 -44.927,44.928 Z"
             style="fill:#b7ffdd;fill-opacity:1;fill-rule:nonzero;stroke:none"
             id="path1523" />
        </g>
      </g>
    </g>
  </g>
</svg>
